HIERARCHY
ROOT hip
{
	OFFSET 0.000000 0.000000 0.000000 
	CHANNELS 6 Xposition Yposition Zposition Xrotation Zrotation Yrotation
	JOINT abdomen
	{
		OFFSET 0.000000 3.402643 0.000000 
		CHANNELS 3 Xrotation Zrotation Yrotation
		JOINT chest
		{
			OFFSET 0.000000 8.438565 -0.680529 
			CHANNELS 3 Xrotation Zrotation Yrotation
			JOINT neck
			{
				OFFSET 0.000000 10.207942 -0.272212 
				CHANNELS 3 Xrotation Zrotation Yrotation
				JOINT head
				{
					OFFSET 0.000000 3.130431 0.000000 
					CHANNELS 3 Xrotation Zrotation Yrotation
					End Site
					{
						OFFSET 0.000000 3.130435 0.000000 
					}
				}
			}
			JOINT lCollar
			{
				OFFSET 3.470700 6.669187 -0.816635 
				CHANNELS 3 Yrotation Zrotation Xrotation
				JOINT lShldr
				{
					OFFSET 3.198488 0.000000 0.000000 
					CHANNELS 3 Zrotation Yrotation Xrotation
					JOINT lForeArm
					{
						OFFSET 10.139888 0.000000 0.000000 
						CHANNELS 3 Yrotation Zrotation Xrotation
						JOINT lHand
						{
							OFFSET 8.370511 0.000000 0.000000 
							CHANNELS 3 Zrotation Yrotation Xrotation
							End Site
							{
								OFFSET 4.083176 0.000000 0.000000 
							}
						}
					}
				}
			}
			JOINT rCollar
			{
				OFFSET -3.470700 6.669187 -0.816635 
				CHANNELS 3 Yrotation Zrotation Xrotation
				JOINT rShldr
				{
					OFFSET -3.198488 0.000000 0.000000 
					CHANNELS 3 Zrotation Yrotation Xrotation
					JOINT rForeArm
					{
						OFFSET -10.139888 0.000000 0.000000 
						CHANNELS 3 Yrotation Zrotation Xrotation
						JOINT rHand
						{
							OFFSET -8.370511 0.000000 0.000000 
							CHANNELS 3 Zrotation Yrotation Xrotation
							End Site
							{
								OFFSET -4.083176 0.000000 0.000000 
							}
						}
					}
				}
			}
		}
	}
	JOINT lThigh
	{
		OFFSET 5.308129 -1.633274 1.361059 
		CHANNELS 3 Xrotation Zrotation Yrotation
		JOINT lShin
		{
			OFFSET -2.041588 -20.007561 0.000000 
			CHANNELS 3 Xrotation Zrotation Yrotation
			JOINT lFoot
			{
				OFFSET 0.000000 -19.190928 -1.224953 
				CHANNELS 3 Xrotation Yrotation Zrotation
				End Site
				{
					OFFSET 0.000000 -2.449906 4.627600 
				}
			}
		}
	}
	JOINT rThigh
	{
		OFFSET -5.308129 -1.633274 1.361059 
		CHANNELS 3 Xrotation Zrotation Yrotation
		JOINT rShin
		{
			OFFSET 2.041588 -20.007561 0.000000 
			CHANNELS 3 Xrotation Zrotation Yrotation
			JOINT rFoot
			{
				OFFSET 0.000000 -19.190928 -1.224953 
				CHANNELS 3 Xrotation Yrotation Zrotation
				End Site
				{
					OFFSET 0.000000 -2.449906 4.627600 
				}
			}
		}
	}
}
MOTION
Frames: 11
Frame Time: 0.016667
9.545805 42.155468 172.295197 -6.439170 3.687590 101.810997 -20.969000 2.215400 -3.076050 16.289000 -0.155817 -1.140720 -7.521980 5.789430 -23.481300 3.202400 8.281970 -11.396400 2.000000 -2.000000 0.000000 -90.364899 24.394699 159.143005 27.256201 -0.336385 0.062672 -179.925003 -179.906006 7.306840 -2.000000 2.000000 0.000000 77.741798 0.883125 -169.431000 -29.082300 0.334328 0.066457 -0.055306 0.017032 -143.016006 -25.335430 10.037673 8.388987 25.057894 3.000594 1.875790 -15.001006 9.766761 0.337801 7.919536 14.164073 1.855739 19.190130 -5.992495 -1.105788 -18.616417 -15.307970 -4.155966 
10.023581 42.070148 172.133438 -6.819500 3.510210 101.417000 -21.046200 2.135250 -3.039380 16.347601 -0.224004 -1.126090 -7.465260 5.835380 -23.338800 3.182660 8.291730 -11.340800 2.000000 -2.000000 0.000000 -89.886200 24.238300 159.035995 27.236601 -0.336406 0.062630 -179.925003 -179.906006 7.258010 -2.000000 2.000000 0.000000 78.191299 0.308491 -170.087006 -29.014000 0.334407 0.066314 -0.055207 0.016080 -142.673996 -25.041168 10.323224 8.234254 25.392063 3.008289 1.893024 -14.753741 9.200501 0.184857 8.103835 14.361650 2.055418 19.586893 -6.101982 -1.118128 -18.551672 -14.918576 -3.915929 
10.515329 42.032696 171.951431 -7.111360 3.285140 100.997002 -21.113001 2.024620 -3.000270 16.445299 -0.262993 -1.123670 -7.528050 5.918080 -23.203199 3.143180 8.330790 -11.278700 2.000000 -2.000000 0.000000 -89.407303 23.964701 158.996994 27.207300 -0.336438 0.062568 -179.925003 -179.906006 7.131060 -2.000000 2.000000 0.000000 78.611504 -0.236521 -170.878998 -28.935900 0.334497 0.066151 -0.055145 0.015454 -142.449005 -24.855577 10.608006 8.234064 25.708206 3.000633 1.906680 -13.884047 8.904527 -0.002618 8.379474 14.492814 2.295944 19.787584 -6.380892 -1.136244 -18.246536 -14.561734 -3.516025 
11.020234 42.049042 171.753738 -7.226710 2.993650 100.586998 -21.169600 1.883510 -2.959370 16.572201 -0.263035 -1.124260 -7.600620 5.942870 -23.053301 3.103690 8.350310 -11.206500 2.000000 -2.000000 0.000000 -88.918503 23.554399 158.910004 27.129200 -0.336523 0.062402 -179.925003 -179.906006 7.043170 -2.000000 2.000000 0.000000 79.012299 -0.761698 -171.798996 -28.828400 0.334621 0.065927 -0.055127 0.015263 -142.380997 -24.692249 10.762868 8.225060 25.868950 2.978950 1.929018 -12.567092 8.824051 -0.174313 8.610748 14.512462 2.499536 20.029821 -6.808263 -1.150349 -17.717175 -14.289750 -2.968597 
11.526126 42.096539 171.551514 -7.156620 2.732480 100.234001 -21.205999 1.705240 -2.934190 16.699200 -0.175383 -1.140520 -7.575210 5.902730 -22.865601 3.093830 8.330780 -11.119700 2.000000 -2.000000 0.000000 -88.419601 22.967800 158.628006 27.002300 -0.336661 0.062133 -179.925003 -179.906006 7.101760 -2.000000 2.000000 0.000000 -100.567001 -178.673996 7.135530 -28.691700 0.334778 0.065641 -0.055104 0.015018 -142.292999 -24.546907 10.788541 8.507417 26.067427 2.967767 1.943941 -11.136244 8.793930 -0.336141 8.740060 14.264807 2.588195 20.457834 -7.045793 -1.187744 -17.122118 -13.996534 -2.570203 
12.023335 42.154312 171.348175 -6.930780 2.559310 100.051003 -21.251200 1.467700 -2.928050 16.709000 -0.058462 -1.177710 -7.520700 5.882680 -22.676300 3.103700 8.311250 -11.020300 2.000000 -2.000000 0.000000 -87.871597 22.302799 158.199997 26.865499 -0.336809 0.061842 -179.925003 -179.906006 7.238480 -2.000000 2.000000 0.000000 -100.147003 -178.003006 5.932760 -28.564800 0.334923 0.065375 -0.055066 0.014610 -142.145996 -24.081219 10.683821 9.274852 26.180126 2.930874 1.953719 -9.720872 8.646368 -0.551587 8.721139 13.815273 2.524379 21.358334 -7.045760 -1.259180 -16.665131 -13.655773 -2.357035 
12.508075 42.214291 171.130249 -6.686040 2.492720 99.981598 -21.364401 1.186120 -2.927830 16.503901 -0.029224 -1.218630 -7.484530 5.890420 -22.512699 3.093830 8.330780 -10.943900 2.000000 -2.000000 0.000000 -87.206596 21.706301 157.852997 26.855801 -0.336819 0.061821 -179.925003 -179.906006 7.277540 -2.000000 2.000000 0.000000 -99.746399 -177.136993 4.749050 -28.515900 0.334979 0.065273 -0.055039 0.014310 -142.039001 -23.526823 10.497179 10.005094 26.397938 2.925475 1.979204 -8.625032 8.137632 -0.755984 8.584559 13.302141 2.280720 22.635874 -6.939701 -1.337965 -16.197645 -13.268998 -2.209217 
12.989331 42.275806 170.896591 -6.539370 2.483750 99.920700 -21.517500 0.926045 -2.926040 16.191401 -0.068161 -1.264330 -7.455480 5.877350 -22.377701 3.064220 8.340530 -10.889800 2.000000 -2.000000 0.000000 -86.522499 21.237200 157.697998 27.129200 -0.336523 0.062402 -179.925003 -179.906006 7.111530 -2.000000 2.000000 0.000000 -99.453102 -176.153000 3.848260 -28.515900 0.334979 0.065273 -0.055031 0.014229 -142.009995 -23.023125 10.361320 10.523540 26.656359 2.910460 2.011211 -7.836279 7.118115 -1.003736 8.505568 12.904141 2.580688 23.907454 -6.740500 -1.388272 -15.635027 -13.369823 -2.191568 
13.475868 42.343628 170.642715 -6.529700 2.503210 99.723602 -21.642000 0.724640 -2.934670 15.927700 -0.126539 -1.298350 -7.378990 5.798900 -22.195801 3.044480 8.321000 -10.814100 2.000000 -2.000000 0.000000 -85.916603 20.846500 157.669998 27.754200 -0.335836 0.063726 -179.923996 -179.904999 6.759960 -2.000000 2.000000 0.000000 -99.345497 -175.216003 3.444830 -28.555000 0.334934 0.065354 -0.055036 0.014283 -142.029007 -22.566338 10.301063 10.854271 27.067759 2.928166 2.028934 -7.301642 6.144647 -1.190608 8.421365 12.577440 3.010703 25.098873 -6.498165 -1.481212 -14.843287 -13.476674 -2.153120 
13.971729 42.419430 170.369736 -6.617770 2.522170 99.336700 -21.738400 0.591941 -2.926940 15.771500 -0.194632 -1.302070 -7.188620 5.686450 -21.940599 3.054370 8.272180 -10.704500 2.000000 -2.000000 0.000000 -85.369698 20.554001 157.884995 28.711300 -0.334756 0.065738 -179.923004 -179.904007 6.242390 -2.000000 2.000000 0.000000 -99.423401 -174.376007 3.481750 -28.594101 0.334890 0.065436 -0.055061 0.014555 -142.126999 -22.035561 10.233047 10.730175 27.451574 2.922549 2.032571 -6.827911 6.067936 -1.248793 8.257047 12.340414 3.534802 26.433249 -6.325368 -1.566320 -13.902600 -13.555582 -2.048649 
14.479049 42.498066 170.082153 -6.764440 2.531110 98.782204 -21.797001 0.516583 -2.877520 15.703100 -0.291918 -1.293570 -6.962460 5.586070 -21.640699 3.074120 8.233130 -10.574100 2.000000 -2.000000 0.000000 -84.784103 20.311199 158.451996 29.892900 -0.333376 0.068196 -179.921997 -179.903000 5.695520 -2.000000 2.000000 0.000000 -99.638100 -173.662994 3.763140 -28.642900 0.334834 0.065539 -0.055088 0.014855 -142.233994 -21.451895 10.113200 10.273406 27.826214 2.921794 2.066075 -6.426545 6.723722 -1.221815 8.078890 12.078629 4.044932 27.674952 -6.072145 -1.627922 -12.754131 -13.604260 -1.922829 
